<svg width="47" height="47" viewBox="0 0 47 47" fill="none" xmlns="http://www.w3.org/2000/svg">
<rect x="0.5" y="0.5" width="46" height="46" rx="15" fill="url(#paint0_linear_147_3460)"/>
<g clip-path="url(#clip0_147_3460)">
<path d="M10.5 32.337C10.5 26.4434 10.5 20.5566 10.5 14.663C10.5136 14.6153 10.5409 14.5676 10.5477 14.5199C10.8543 12.6735 11.8899 11.413 13.641 10.7589C13.968 10.6363 14.3223 10.5818 14.663 10.5C20.5566 10.5 26.4434 10.5 32.337 10.5C32.3847 10.5136 32.4324 10.5409 32.4801 10.5477C34.8375 10.902 36.5 12.8029 36.5 15.2013C36.5068 20.7338 36.5068 26.2662 36.4932 31.7987C36.4932 32.3029 36.4114 32.8344 36.2479 33.3181C35.587 35.294 33.8632 36.5 31.751 36.5C26.5456 36.5 21.347 36.5 16.1415 36.5C15.76 36.5 15.3784 36.5068 14.9969 36.4932C13.1027 36.4319 11.4471 35.2395 10.7998 33.4544C10.6635 33.0933 10.5954 32.7117 10.5 32.337ZM34.6399 23.5136C34.6399 20.7951 34.6399 18.0833 34.6399 15.3648C34.6399 15.1263 34.6399 14.8878 34.5922 14.6562C34.3333 13.2731 33.2227 12.3601 31.7579 12.3601C26.2594 12.3532 20.7542 12.3601 15.2558 12.3601C15.0514 12.3601 14.847 12.3669 14.6494 12.4078C13.2458 12.6735 12.3601 13.7909 12.3601 15.3035C12.3601 20.7678 12.3601 26.239 12.3601 31.7034C12.3601 31.9214 12.3669 32.1462 12.4078 32.3574C12.6735 33.7337 13.7773 34.6399 15.2285 34.6399C20.7406 34.6467 26.2458 34.6467 31.7579 34.6331C32.1803 34.6331 32.63 34.5514 33.0115 34.381C34.1221 33.8768 34.6468 32.957 34.6468 31.7442C34.6399 28.9984 34.6399 26.2526 34.6399 23.5136Z" fill="white"/>
<path d="M22.5733 22.5734C22.5733 22.4439 22.5733 22.3485 22.5733 22.2463C22.5733 21.1221 22.5665 19.9979 22.5802 18.8669C22.587 18.2196 23.1525 17.7972 23.7521 17.9607C24.1541 18.0697 24.4198 18.424 24.4198 18.8941C24.4266 20.0115 24.4198 21.1289 24.4198 22.2463C24.4198 22.3417 24.4198 22.4303 24.4198 22.5666C24.5356 22.5666 24.631 22.5666 24.7264 22.5666C25.8574 22.5666 26.9953 22.5666 28.1263 22.5666C28.4942 22.5666 28.7804 22.7301 28.9507 23.0571C29.121 23.3774 29.1006 23.6976 28.903 23.9974C28.7054 24.2972 28.4124 24.413 28.0582 24.413C26.9476 24.4062 25.8438 24.413 24.7332 24.413C24.6446 24.413 24.5492 24.413 24.4198 24.413C24.4198 24.5288 24.4198 24.631 24.4198 24.7264C24.4198 25.8574 24.4266 26.9953 24.413 28.1263C24.4062 28.8417 23.6771 29.2778 23.0639 28.9439C22.7164 28.76 22.5665 28.4534 22.5665 28.065C22.5665 26.9476 22.5665 25.8302 22.5665 24.7128C22.5665 24.6242 22.5665 24.5288 22.5665 24.4062C22.4507 24.4062 22.3621 24.4062 22.2736 24.4062C21.1425 24.4062 20.0047 24.413 18.8737 24.3994C18.2264 24.3926 17.7971 23.8407 17.9607 23.2343C18.0697 22.8187 18.4308 22.5597 18.9145 22.5597C20.0319 22.5529 21.1493 22.5597 22.2667 22.5597C22.3621 22.5734 22.4575 22.5734 22.5733 22.5734Z" fill="white"/>
</g>
<rect x="10.65" y="10.65" width="25.7" height="25.7" stroke="url(#paint1_linear_147_3460)" stroke-width="0.3"/>
<defs>
<linearGradient id="paint0_linear_147_3460" x1="23.5" y1="0.5" x2="23.5" y2="46.5" gradientUnits="userSpaceOnUse">
<stop stop-color="#661F8B"/>
<stop offset="1" stop-color="#973CC8"/>
</linearGradient>
<linearGradient id="paint1_linear_147_3460" x1="23.5" y1="10.5" x2="23.5" y2="36.5" gradientUnits="userSpaceOnUse">
<stop stop-color="#661F8B"/>
<stop offset="1" stop-color="#973CC8"/>
</linearGradient>
<clipPath id="clip0_147_3460">
<rect x="10.5" y="10.5" width="26" height="26" fill="white"/>
</clipPath>
</defs>
</svg>
