<svg width="47" height="47" viewBox="0 0 47 47" fill="none" xmlns="http://www.w3.org/2000/svg">
<rect x="0.5" y="0.5" width="46" height="46" rx="15" fill="url(#paint0_linear_147_10482)"/>
<path d="M15.824 28.5L15.2 26.46H12.08L11.456 28.5H9.5L12.524 19.896H14.744L17.78 28.5H15.824ZM14.144 22.944C14.104 22.808 14.052 22.636 13.988 22.428C13.924 22.22 13.86 22.008 13.796 21.792C13.732 21.576 13.68 21.388 13.64 21.228C13.6 21.388 13.544 21.588 13.472 21.828C13.408 22.06 13.344 22.284 13.28 22.5C13.224 22.708 13.18 22.856 13.148 22.944L12.536 24.936H14.768L14.144 22.944ZM26.4692 24.132C26.4692 25.092 26.2852 25.896 25.9172 26.544C25.5492 27.192 25.0132 27.68 24.3092 28.008C23.6132 28.336 22.7732 28.5 21.7892 28.5H19.3652V19.932H22.0532C22.9492 19.932 23.7252 20.092 24.3812 20.412C25.0452 20.732 25.5572 21.204 25.9172 21.828C26.2852 22.444 26.4692 23.212 26.4692 24.132ZM24.5852 24.18C24.5852 23.548 24.4932 23.028 24.3092 22.62C24.1252 22.212 23.8492 21.912 23.4812 21.72C23.1212 21.52 22.6772 21.42 22.1492 21.42H21.1772V27H21.9572C22.8452 27 23.5052 26.764 23.9372 26.292C24.3692 25.82 24.5852 25.116 24.5852 24.18ZM35.852 24.132C35.852 25.092 35.668 25.896 35.3 26.544C34.932 27.192 34.396 27.68 33.692 28.008C32.996 28.336 32.156 28.5 31.172 28.5H28.748V19.932H31.436C32.332 19.932 33.108 20.092 33.764 20.412C34.428 20.732 34.94 21.204 35.3 21.828C35.668 22.444 35.852 23.212 35.852 24.132ZM33.968 24.18C33.968 23.548 33.876 23.028 33.692 22.62C33.508 22.212 33.232 21.912 32.864 21.72C32.504 21.52 32.06 21.42 31.532 21.42H30.56V27H31.34C32.228 27 32.888 26.764 33.32 26.292C33.752 25.82 33.968 25.116 33.968 24.18Z" fill="white"/>
<defs>
<linearGradient id="paint0_linear_147_10482" x1="23.5" y1="0.5" x2="23.5" y2="46.5" gradientUnits="userSpaceOnUse">
<stop stop-color="#661F8B"/>
<stop offset="1" stop-color="#973CC8"/>
</linearGradient>
</defs>
</svg>
