<svg width="47" height="46" viewBox="0 0 47 46" fill="none" xmlns="http://www.w3.org/2000/svg">
<rect x="0.5" width="46" height="46" rx="15" fill="url(#paint0_linear_147_10521)"/>
<path d="M30.6377 9.4121C30.3468 9.46058 29.7893 9.65452 29.5226 9.82422C29.062 10.0666 28.4802 10.6969 28.2377 11.1818C27.7771 12.103 27.7771 12.7091 28.2135 14.4545C28.3832 15.1091 28.5044 15.6666 28.5044 15.6909C28.5044 15.7151 28.262 15.7394 27.8499 15.7394H27.1953V16.5636V17.3879H27.9953H28.7953V20.2969V23.206L29.5953 25.5333L30.3953 27.8606H31.1711H31.9711L32.068 27.5454C32.1165 27.3757 32.4802 26.3333 32.868 25.2182L33.5711 23.206V20.3212V17.4121H34.3711H35.1711V16.5879V15.7636H34.5165C34.1286 15.7636 33.862 15.7394 33.862 15.7151C33.862 15.6909 34.0074 15.0848 34.1771 14.3818C34.5165 12.9757 34.565 12.5879 34.4196 11.9333C34.1286 10.7212 33.1105 9.70301 31.9226 9.46058C31.5589 9.36361 30.9529 9.33937 30.6377 9.4121ZM31.8741 11.1333C32.4317 11.3757 32.7953 11.9333 32.868 12.5151C32.8923 12.7818 32.8438 13.0485 32.5286 14.2848L32.165 15.7636H31.1711H30.1771L29.8135 14.2848C29.4014 12.6606 29.4014 12.4909 29.6438 11.9576C30.0559 11.1091 31.0256 10.7454 31.8741 11.1333ZM31.9711 20.1757V22.9636L31.5832 24.0545C31.365 24.6606 31.1953 25.1697 31.1711 25.1697C31.1468 25.1697 30.9529 24.6606 30.7589 24.0545L30.3711 22.9394V20.1757V17.4121H31.1711H31.9711V20.1757Z" fill="white"/>
<path d="M13.5719 14.5757V17.3879H14.3719H15.1719L15.1476 17.9212C15.1476 18.3576 15.0991 18.4788 15.0264 18.6C14.8325 18.8666 14.687 18.9394 14.1779 18.9879C13.2567 19.0848 12.5537 19.5697 12.19 20.3697L11.9961 20.7818V27.8121V34.8424L12.1658 35.1818C12.4809 35.8363 13.0385 36.3212 13.7173 36.5151C14.0567 36.6121 14.3719 36.6121 18.7597 36.6121C22.8082 36.6121 23.487 36.6121 23.7537 36.5394C24.6991 36.2969 25.3779 35.5212 25.5476 34.5757C25.5961 34.3091 25.5961 32.103 25.5961 27.5697C25.5719 21.4606 25.5719 20.9272 25.4991 20.6606C25.2809 20.006 24.6749 19.3757 24.0688 19.1333C23.8991 19.0848 23.584 19.0121 23.3658 18.9879C22.6143 18.9151 22.3961 18.6727 22.3719 17.8969L22.3476 17.4121L23.1719 17.3879L23.9961 17.3636V14.5757V11.7879L18.784 11.7636H13.5719V14.5757ZM22.3476 14.5515V15.7394H18.7597H15.1476V14.5515V13.3636H18.7355H22.3476V14.5515ZM20.7476 17.8485C20.7476 18.7697 20.9658 19.3515 21.4749 19.8606C21.9112 20.2969 22.59 20.5879 23.1961 20.5879C23.4143 20.5879 23.6809 20.7333 23.8506 20.9757C23.9476 21.0969 23.9719 21.2182 23.9719 21.6303V22.1636L19.5597 22.1879H15.1476V27.8121V33.4363H19.5597H23.9961L23.9719 33.9454C23.9476 34.503 23.8506 34.6969 23.584 34.9151C23.4385 35.0363 23.4143 35.0363 18.8082 35.0363H14.2022L13.9597 34.9151C13.4991 34.6727 13.5234 35.303 13.5234 27.7879C13.5234 21.2666 13.5234 21.1454 13.6203 20.9757C13.7658 20.7576 14.0325 20.5879 14.2749 20.5879C14.59 20.5879 15.1476 20.4424 15.4385 20.2727C15.584 20.2 15.8264 20.006 15.9719 19.8606C16.4809 19.3515 16.6991 18.7697 16.6991 17.8969V17.3636H18.687H20.6749V17.8485H20.7476ZM23.9719 27.8121V31.8121L20.3597 31.8363H16.7476V27.8121V23.7879H20.3597L23.9719 23.8121V27.8121Z" fill="white"/>
<path d="M30.5423 30.5515C29.7666 31.7151 29.6211 31.9818 29.2575 32.7333C28.9423 33.4121 28.7969 33.8727 28.7969 34.2606C28.7969 35.4 29.6696 36.3939 30.809 36.5879C31.9726 36.7818 33.1363 36.0788 33.4757 34.9151C33.7423 34.0909 33.4999 33.2909 32.5787 31.7151C32.1423 30.9879 31.2454 29.6545 31.1726 29.6545C31.1726 29.6545 30.8575 30.0667 30.5423 30.5515ZM31.5848 33.2182C31.9969 34.0424 32.0454 34.2606 31.8757 34.5758C31.7545 34.7939 31.4393 35.0121 31.1969 35.0121C30.7605 35.0121 30.3726 34.5515 30.4211 34.1394C30.4454 33.9212 31.1241 32.5151 31.1969 32.5151C31.1969 32.5151 31.3908 32.8303 31.5848 33.2182Z" fill="white"/>
<defs>
<linearGradient id="paint0_linear_147_10521" x1="23.5" y1="0" x2="23.5" y2="46" gradientUnits="userSpaceOnUse">
<stop stop-color="#661F8B"/>
<stop offset="1" stop-color="#973CC8"/>
</linearGradient>
</defs>
</svg>
