<svg width="75" height="99" viewBox="0 0 75 99" fill="none" xmlns="http://www.w3.org/2000/svg">
<path d="M62.7182 21.1155C67.71 25.9643 71.0877 31.6213 72.911 38.2062C73.8377 41.5286 74.2263 44.9407 74.2263 48.3828C74.2263 59.7866 74.2263 71.1605 74.2561 82.5643C74.2561 91.1845 69.354 97.1109 60.8052 98.4578C55.4845 99.2958 48.49 96.8714 45.5308 91.0348C45.8297 90.8852 46.0987 90.7654 46.3976 90.6457C55.9927 86.7547 62.0307 77.8052 62.0606 67.4191C62.0606 64.5158 62.0008 61.5825 62.0008 58.6792C62.0008 58.2601 62.0008 57.871 62.0008 57.4221C62.4492 57.3622 62.8079 57.3023 63.1665 57.2425C65.1991 56.8534 66.335 55.3568 66.1557 53.3215C66.0062 51.4957 64.422 50.1787 62.4492 50.1488C60.8052 50.1488 59.1611 50.2086 57.547 49.9991C53.9003 49.5202 51.3596 47.425 49.6259 44.2523C48.4601 42.0973 47.8324 39.7626 47.5634 37.3382C47.2944 34.9736 45.7998 33.5669 43.7074 33.7165C41.914 33.8362 40.5091 35.1532 40.4493 37.0988C40.2401 43.085 36.8026 46.4672 31.5418 48.4128C27.357 49.9692 22.963 50.2386 18.5391 50.0889C16.7158 50.029 14.8924 49.8195 13.0691 49.7297C11.0365 49.6399 9.54192 50.7773 9.18322 52.663C8.85442 54.3691 9.81094 56.0452 11.6343 56.6738C12.3218 56.9132 12.3218 57.3323 12.3218 57.871C12.3517 61.0138 12.4115 64.1566 12.4414 67.2694C12.5609 78.2243 18.6587 87.024 28.8815 90.975C29.0309 91.0348 29.1505 91.0648 29.4195 91.1845C29.2402 91.5137 29.1206 91.7831 28.9412 92.0525C25.5635 97.1408 18.7783 99.7149 12.5011 98.3081C5.98488 96.8415 2.00936 92.711 1.02295 86.0662C0.753933 84.3901 0.783824 82.6541 0.783824 80.948C0.753933 69.7837 0.694151 58.6193 0.813716 47.455C0.903389 38.0565 4.31097 29.9153 10.6479 23.0011C11.3055 22.2828 11.4251 21.7141 11.0963 20.8461C10.2294 18.5414 9.39246 16.2367 8.61529 13.902C8.04736 12.2558 8.43595 10.8491 9.81094 9.80147C15.9386 5.01247 22.7239 1.69011 30.4657 0.492858C38.3569 -0.734322 45.9792 0.373133 53.3623 3.33632C57.2481 4.89275 60.9247 6.89814 64.2725 9.41236C66.2752 10.9089 66.6638 12.4055 65.6774 14.6803C64.6312 16.6857 63.6747 18.8706 62.7182 21.1155ZM33.4249 19.7686C33.4249 21.5345 33.395 23.1508 33.4249 24.797C33.4548 26.0541 34.0227 26.6528 35.2483 26.6827C36.6233 26.7126 37.9982 26.7126 39.3732 26.6827C40.8977 26.6827 41.4357 26.114 41.4357 24.5576C41.4357 23.0011 41.4357 21.4447 41.4357 19.7686C43.2292 19.7686 44.9031 19.7985 46.5471 19.7686C47.8324 19.7386 48.3705 19.1699 48.3705 17.8829C48.4003 16.6258 48.3705 15.3387 48.3705 14.0816C48.3705 12.3157 47.8922 11.8368 46.1286 11.8368C44.5743 11.8368 43.02 11.8368 41.4357 11.8368C41.4357 10.1906 41.4357 8.69401 41.4357 7.19745C41.4357 5.43151 40.9276 4.92268 39.1939 4.89275C38.0281 4.89275 36.8923 4.89275 35.7265 4.89275C33.9032 4.89275 33.395 5.37165 33.395 7.19745C33.395 8.72395 33.395 10.2205 33.395 11.8368C31.5717 11.8368 29.8978 11.8069 28.2537 11.8368C27.0581 11.8667 26.4902 12.4354 26.4603 13.6327C26.4304 14.9496 26.4603 16.2367 26.4603 17.5537C26.4603 19.2597 26.9385 19.7686 28.6423 19.7686C30.1967 19.7686 31.7809 19.7686 33.4249 19.7686Z" fill="url(#paint0_linear_1_781)"/>
<defs>
<linearGradient id="paint0_linear_1_781" x1="37.4992" y1="0" x2="37.4992" y2="98.6895" gradientUnits="userSpaceOnUse">
<stop stop-color="#661F8B"/>
<stop offset="1" stop-color="#973CC8"/>
</linearGradient>
</defs>
</svg>
