<svg width="113" height="67" viewBox="0 0 113 67" fill="none" xmlns="http://www.w3.org/2000/svg">
<path fill-rule="evenodd" clip-rule="evenodd" d="M0.320312 35.2016C1.68316 31.2846 9.44177 29.6338 20.7596 30.9989L22.9521 22.9274C11.7527 21.5031 3.57548 23.1055 2.21255 28.2095L0.320312 35.2016Z" fill="white"/>
<path fill-rule="evenodd" clip-rule="evenodd" d="M41.1953 26.8043C39.8325 30.7214 32.0767 32.3639 20.7589 30.9989L18.5664 39.0703C29.7658 40.4946 37.943 38.8922 39.3059 33.7882L41.1953 26.8043Z" fill="white"/>
<path fill-rule="evenodd" clip-rule="evenodd" d="M7.48633 18.2982C24.0187 19.4853 40.9065 27.6753 39.3066 33.7882L40.788 28.3282C41.262 26.6071 41.499 25.7169 41.499 25.0046C41.499 18.773 25.2038 11.1764 9.6788 10.2268L7.48633 18.2982Z" fill="white"/>
<path fill-rule="evenodd" clip-rule="evenodd" d="M34.0322 43.6995C17.4999 42.5125 0.612085 34.3224 2.21193 28.2095L0.730581 33.6695C0.256523 35.3906 0.0195312 36.2809 0.0195312 36.9931C0.0195312 43.2247 16.3148 50.8213 31.8398 51.7709L34.0322 43.6995Z" fill="white"/>
<path fill-rule="evenodd" clip-rule="evenodd" d="M94.3062 32.7125C95.5288 32.7125 96.1537 33.5017 96.1537 35.2431C96.1537 35.408 96.1439 35.5799 96.1243 35.7602H91.4349C91.9439 33.9291 93.0332 32.7125 94.3062 32.7125ZM94.3334 41.8009C92.2412 41.8282 91.1278 40.4948 91.1278 38.1275C91.1278 37.9712 91.1323 37.8173 91.1391 37.6649H99.36C99.5226 37.0391 99.631 36.3588 99.631 35.733C99.631 32.8486 97.8656 30.6445 94.2521 30.6445C90.5572 30.6445 87.2695 34.2908 87.2695 38.1275C87.2695 41.8009 89.6605 44.0323 93.6543 44.0323C95.4204 44.0323 97.1587 43.4337 98.3813 42.5085L97.621 40.6037C96.6701 41.3384 95.5017 41.7738 94.3334 41.8009Z" fill="white"/>
<path fill-rule="evenodd" clip-rule="evenodd" d="M52.2237 34.454H50.7371L52.7872 26.8894H54.3427C56.3087 26.8894 57.4128 28.2227 57.4128 29.9914C57.4128 32.8214 55.1966 34.454 52.2237 34.454ZM61.7869 29.8281C61.7869 26.835 59.4505 24.6581 55.9186 24.6581H49.0721L43.9102 43.7058H48.2299L50.1325 36.6853H53.881C58.1735 36.6853 61.7869 33.9098 61.7869 29.8281Z" fill="white"/>
<path fill-rule="evenodd" clip-rule="evenodd" d="M67.4152 30.9982L67.8996 29.2295C68.1441 28.3043 68.5516 26.7261 69.1222 24.903C69.7198 23.0254 70.8066 21.8554 72.2737 21.8554C72.9801 21.8554 73.4147 22.1819 73.4147 22.7261C73.3876 23.3247 72.8985 23.6785 72.8985 24.6309C72.8985 25.7465 73.8494 26.6172 75.072 26.6172C76.5937 26.6172 77.8163 25.3928 77.8163 23.8962C77.8163 21.5832 75.8326 20.0594 72.817 20.0594C68.3886 20.0594 65.4816 22.8893 63.6613 29.5016L56.2715 56.4133H60.4554L66.8415 33.0934H71.1931L68.3343 43.7058H72.5182L75.941 30.9982H67.4152Z" fill="white"/>
<path fill-rule="evenodd" clip-rule="evenodd" d="M88.6014 30.9982H77.5168L76.9732 33.0934H82.3386L74.0117 43.7058H85.7482L86.2918 41.6105H80.2518L88.6014 30.9982Z" fill="white"/>
<path fill-rule="evenodd" clip-rule="evenodd" d="M110.553 30.7805C109.053 30.7805 107.457 31.7509 106.206 33.7672L106.939 30.9982H102.756L99.332 43.7058H103.516L105.065 37.9914C105.69 35.6513 107.211 33.3656 108.216 33.3656C109.303 33.3656 108.896 35.4064 110.771 35.4064C112.129 35.4064 112.944 34.1547 112.944 33.0119C112.944 31.6785 111.884 30.7805 110.553 30.7805Z" fill="white"/>
</svg>
