<svg width="47" height="46" viewBox="0 0 47 46" fill="none" xmlns="http://www.w3.org/2000/svg">
<rect x="0.5" width="46" height="46" rx="15" fill="url(#paint0_linear_147_10257)"/>
<g clip-path="url(#clip0_147_10257)">
<path d="M30.3225 9.53332C29.3771 9.79999 28.6983 10.5273 28.5528 11.497C28.4316 12.1757 28.6741 12.9273 29.1589 13.4848L29.4013 13.7515L28.4801 14.6727C27.971 15.1818 27.5347 15.5939 27.5104 15.5939C27.4862 15.5939 27.1953 15.3273 26.8559 14.9879C26.2256 14.3576 26.0316 14.2364 25.5225 14.0909C23.7286 13.5576 22.0316 15.3515 22.6134 17.1697L22.7104 17.4364L18.4922 21.6303C15.8983 24.2242 14.2498 25.9212 14.1528 26.0667C13.8377 26.6242 13.7407 27.4727 13.9589 28.0303L14.0559 28.3212L13.4256 28.9757C12.6498 29.7757 12.5044 30.0182 12.5044 30.6727C12.5044 31.0121 12.5286 31.1576 12.6498 31.4242C12.7468 31.5939 12.8922 31.8364 13.0134 31.9576L13.2316 32.1757L11.6316 33.7757C10.7589 34.6485 9.98314 35.4727 9.93466 35.5697C9.81345 35.8364 9.81345 36.0545 9.93466 36.297C10.0559 36.5394 10.371 36.7333 10.6377 36.7333C10.7347 36.7333 10.8801 36.6848 11.0013 36.6364C11.0983 36.5879 11.9225 35.8121 12.7953 34.9394L14.3953 33.3394L14.6134 33.5576C15.1468 34.0667 15.971 34.2121 16.6256 33.9212C16.868 33.8 17.0862 33.6303 17.5953 33.1454L18.2256 32.5151L18.5165 32.6121C19.1225 32.8303 19.971 32.7091 20.5528 32.3697C20.6741 32.297 22.6619 30.3576 24.965 28.0545L29.1347 23.8848L29.5953 24.0061C30.0074 24.103 30.1286 24.103 30.468 24.0545C31.9225 23.8364 32.8438 22.4788 32.4801 21.097C32.3589 20.5879 32.2134 20.3697 31.5589 19.7151C31.2195 19.3757 30.9528 19.0848 30.9528 19.0606C30.9528 19.0364 31.365 18.6 31.8741 18.0909L32.7953 17.1697L33.0619 17.4121C34.4437 18.6485 36.5528 18.0182 37.0134 16.2242C37.1589 15.6909 37.0862 15.0848 36.8195 14.5515C36.6498 14.1879 32.4074 9.94544 32.068 9.75151C31.5347 9.48484 30.8801 9.38787 30.3225 9.53332ZM31.2195 11.1333C31.3165 11.1818 32.2619 12.103 33.4013 13.2182C35.5347 15.3515 35.5104 15.3515 35.4377 15.7636C35.3892 16.0303 35.1225 16.297 34.8801 16.3697C34.4437 16.4909 34.4438 16.4909 32.2377 14.2848C30.5892 12.6364 30.2013 12.2 30.1528 12.0545C29.9589 11.4242 30.6134 10.8667 31.2195 11.1333ZM31.0983 15.4485L31.6559 16.0061L30.7104 16.9515L29.765 17.897L29.2074 17.3151L28.6256 16.7576L29.5468 15.8364C30.0559 15.3273 30.4922 14.9151 30.5165 14.9151C30.5407 14.8909 30.7831 15.1333 31.0983 15.4485ZM25.2074 15.6667C25.3044 15.7151 26.565 16.9273 28.1407 18.503C30.565 20.9273 30.9044 21.2909 30.9286 21.4606C31.0256 21.9212 30.8074 22.2848 30.371 22.4061C29.9347 22.5273 29.9831 22.6 26.9528 19.5454C23.8256 16.4182 23.9468 16.5879 24.165 16.0788C24.3347 15.6667 24.7953 15.4727 25.2074 15.6667ZM25.8377 20.7333L27.8983 22.7939L27.0256 23.6667L26.1528 24.5151L24.0922 22.4545L22.0316 20.3939L22.8801 19.5454C23.3407 19.0848 23.7528 18.697 23.7528 18.697C23.7771 18.6727 24.6983 19.5939 25.8377 20.7333ZM22.9528 23.5939L25.0134 25.6545L22.371 28.297C20.9165 29.7515 19.6801 30.9636 19.5831 31.0121C19.4134 31.1091 19.0498 31.1091 18.8801 31.0364C18.7347 30.9394 15.6316 27.8364 15.5347 27.6667C15.4377 27.4727 15.4377 27.1333 15.5347 26.9394C15.5831 26.8667 15.7771 26.6242 15.9953 26.4303L16.3831 26.0667L16.868 26.5515C17.1347 26.8182 17.4256 27.0848 17.5225 27.1091C18.0316 27.3757 18.6619 26.9879 18.6619 26.4061C18.6619 26.0909 18.6134 26.0182 18.0316 25.4121L17.4983 24.903L18.0559 24.3454L18.6134 23.7879L19.1468 24.3212C19.7528 24.9273 19.971 25.0242 20.3347 24.9273C20.6013 24.8545 20.868 24.5636 20.8922 24.3212C20.9407 23.9818 20.7953 23.7394 20.2377 23.1818L19.7286 22.6727L20.2619 22.1394C20.5771 21.8242 20.8195 21.5818 20.8438 21.5818C20.8922 21.5576 21.8377 22.4788 22.9528 23.5939ZM16.0438 30.4788C16.5286 30.9636 16.9407 31.4 16.9407 31.4242C16.9407 31.5212 15.9468 32.4667 15.8498 32.4667C15.7286 32.4667 14.0801 30.8182 14.0801 30.697C14.0801 30.6 15.0256 29.6061 15.1225 29.6061C15.1225 29.5818 15.5589 29.9939 16.0438 30.4788Z" fill="white"/>
</g>
<defs>
<linearGradient id="paint0_linear_147_10257" x1="23.5" y1="0" x2="23.5" y2="46" gradientUnits="userSpaceOnUse">
<stop stop-color="#661F8B"/>
<stop offset="1" stop-color="#973CC8"/>
</linearGradient>
<clipPath id="clip0_147_10257">
<rect width="28" height="28" fill="white" transform="translate(9.5 9)"/>
</clipPath>
</defs>
</svg>
